<?xml version="1.0" encoding="utf-8"?>
<!-- Generator: Adobe Illustrator 19.0.1, SVG Export Plug-In . SVG Version: 6.00 Build 0)  -->
<svg version="1.1" id="Capa_1" xmlns="http://www.w3.org/2000/svg" xmlns:xlink="http://www.w3.org/1999/xlink" x="0px" y="0px"
	 viewBox="113 -112.2 525.2 525.2" style="enable-background:new 113 -112.2 525.2 525.2;" xml:space="preserve">
<style type="text/css">
	.st0{fill:#333333;}
</style>
<g>
	<path class="st0" d="M622.7,139.4L386.3-96.9c-9.4-9.5-22.6-15.3-37-15.3H165.5c-28.8,0-52.5,23.6-52.5,52.5v183.8
		c0,14.4,5.8,27.6,15.5,37.3l236.3,236.3c9.4,9.5,22.6,15.3,37,15.3c14.4,0,27.6-5.8,37-15.5l183.8-183.8c9.7-9.4,15.5-22.6,15.5-37
		S632.1,148.8,622.7,139.4z M204.9,19.1c-21.8,0-39.4-17.6-39.4-39.4c0-21.8,17.7-39.4,39.4-39.4c21.8,0,39.4,17.7,39.4,39.4
		C244.3,1.6,226.7,19.1,204.9,19.1z"/>
</g>
</svg>
