<?xml version="1.0" encoding="utf-8"?>
<!-- Generator: Adobe Illustrator 19.0.1, SVG Export Plug-In . SVG Version: 6.00 Build 0)  -->
<svg version="1.1" id="Layer_1" xmlns="http://www.w3.org/2000/svg" xmlns:xlink="http://www.w3.org/1999/xlink" x="0px" y="0px"
	 viewBox="-103 105 512 512" style="enable-background:new -103 105 512 512;" xml:space="preserve">
<style type="text/css">
	.st0{opacity:0.8;fill:#FFFFFF;}
</style>
<path class="st0" d="M334.5,491.6L203.9,361l130.6-130.6c14.1-14.1,14.1-36.8,0-50.9c-14.1-14.1-36.8-14.1-50.9,0L153,310.1
	L22.4,179.5c-14.1-14.1-36.8-14.1-50.9,0s-14.1,36.8,0,50.9L102.1,361L-28.5,491.6c-14.1,14.1-14.1,36.8,0,50.9s36.8,14.1,50.9,0
	L153,411.9l130.6,130.6c14.1,14.1,36.8,14.1,50.9,0C348.5,528.4,348.5,505.6,334.5,491.6z"/>
</svg>
