<?xml version="1.0" encoding="utf-8"?>
<!-- Generator: Adobe Illustrator 19.0.1, SVG Export Plug-In . SVG Version: 6.00 Build 0)  -->
<svg version="1.1" id="Layer_1" xmlns:sketch="http://www.bohemiancoding.com/sketch/ns"
	 xmlns="http://www.w3.org/2000/svg" xmlns:xlink="http://www.w3.org/1999/xlink" x="0px" y="0px" viewBox="-1183 1585 32 32"
	 style="enable-background:new -1183 1585 32 32;" xml:space="preserve">
<style type="text/css">
	.st0{fill:#FFFFFF;}
</style>
<title></title>
<desc></desc>
<g id="Page-1">
	<g id="icon-11-laughing-face">
		<path id="laughing-face" class="st0" d="M-1171,1599c0.6,0,1-0.4,1-1s-0.4-1-1-1s-1,0.4-1,1S-1171.6,1599-1171,1599L-1171,1599z
			 M-1162,1599c0.6,0,1-0.4,1-1s-0.4-1-1-1s-1,0.4-1,1S-1162.6,1599-1162,1599L-1162,1599z M-1174,1604c0,0,1,6,7.5,6s7.5-6,7.5-6
			H-1174L-1174,1604z M-1172.7,1605c0,0,1.3,4,6.2,4s6.1-4,6.1-4H-1172.7L-1172.7,1605z"/>
	</g>
</g>
</svg>
