<?xml version="1.0" encoding="utf-8"?>
<!-- Generator: Adobe Illustrator 19.0.1, SVG Export Plug-In . SVG Version: 6.00 Build 0)  -->
<svg version="1.1" id="Layer_1" xmlns="http://www.w3.org/2000/svg" xmlns:xlink="http://www.w3.org/1999/xlink" x="0px" y="0px"
	 viewBox="106 -106 512 512" style="enable-background:new 106 -106 512 512;" xml:space="preserve">
<style type="text/css">
	.st0{fill:#FFFFFF;enable-background:new    ;}
</style>
<path class="st0" d="M560.4,292.8L417.7,150L560.4,7.2c15.4-15.4,15.4-40.2,0-55.7c-15.4-15.4-40.2-15.4-55.7,0L362,94.3L219.2-48.4
	c-15.4-15.4-40.2-15.4-55.7,0s-15.4,40.2,0,55.7L306.3,150L163.6,292.8c-15.4,15.4-15.4,40.2,0,55.7s40.2,15.4,55.7,0L362,205.7
	l142.8,142.8c15.4,15.4,40.2,15.4,55.7,0C575.7,333,575.7,308.1,560.4,292.8z"/>
</svg>
