<?xml version="1.0" encoding="utf-8"?>
<!-- Generator: Adobe Illustrator 19.0.1, SVG Export Plug-In . SVG Version: 6.00 Build 0)  -->
<svg version="1.1" id="Layer_1" xmlns:sketch="http://www.bohemiancoding.com/sketch/ns"
	 xmlns="http://www.w3.org/2000/svg" xmlns:xlink="http://www.w3.org/1999/xlink" x="0px" y="0px" viewBox="-1183 1585 32 32"
	 style="enable-background:new -1183 1585 32 32;" xml:space="preserve">
<style type="text/css">
	.st0{fill:#FFFFFF;}
</style>
<g id="Page-1">
	<g id="icon-20-sad-face-eyebrows">
		<path id="sad-face-eyebrows" class="st0" d="M-1166.5,1606c-3.5,0-5.5,2-5.5,2v-1c0,0,2-2,5.5-2s5.5,2,5.5,2v1
			C-1161,1608-1163,1606-1166.5,1606L-1166.5,1606z M-1162.4,1595l-0.6,0.8l3.3,2.2l0.6-0.8L-1162.4,1595L-1162.4,1595z
			 M-1173.9,1597.2l0.6,0.8l3.3-2.2l-0.6-0.8L-1173.9,1597.2L-1173.9,1597.2z M-1171,1600c0.6,0,1-0.4,1-1s-0.4-1-1-1s-1,0.4-1,1
			S-1171.6,1600-1171,1600L-1171,1600z M-1162,1600c0.6,0,1-0.4,1-1s-0.4-1-1-1s-1,0.4-1,1S-1162.6,1600-1162,1600L-1162,1600z"/>
	</g>
</g>
<title></title>
<desc></desc>
</svg>
