<?xml version="1.0" encoding="utf-8"?>
<!-- Generator: Adobe Illustrator 19.0.1, SVG Export Plug-In . SVG Version: 6.00 Build 0)  -->
<svg version="1.1" id="Capa_1" xmlns="http://www.w3.org/2000/svg" xmlns:xlink="http://www.w3.org/1999/xlink" x="0px" y="0px"
	 viewBox="25 -25 350 350" style="enable-background:new 25 -25 350 350;" xml:space="preserve">
<style type="text/css">
	.st0{fill:#333333;}
</style>
<g>
	<path class="st0" d="M200,146.2c38.9,0,70.5-38.3,70.5-85.6c0-47.3-10.4-85.6-70.5-85.6s-70.5,38.3-70.5,85.6
		C129.5,107.9,161.1,146.2,200,146.2z"/>
	<path class="st0" d="M66.9,276.9C66.9,274,66.9,276,66.9,276.9L66.9,276.9z"/>
	<path class="st0" d="M333.1,279.1C333.1,278.3,333.1,273.6,333.1,279.1L333.1,279.1z"/>
	<path class="st0" d="M332.9,273.4c-1.3-82.3-12.1-105.8-94.4-120.7c0,0-11.6,14.8-38.6,14.8s-38.6-14.8-38.6-14.8
		c-81.4,14.7-92.8,37.8-94.3,118c-0.1,6.5-0.2,6.9-0.2,6.1c0,1.4,0,4.1,0,8.7c0,0,19.6,39.5,133.1,39.5
		c113.5,0,133.1-39.5,133.1-39.5c0-3,0-5,0-6.4C333.1,279.6,333,278.7,332.9,273.4z"/>
</g>
</svg>
