<?xml version="1.0" encoding="utf-8"?>
<!-- Generator: Adobe Illustrator 19.0.1, SVG Export Plug-In . SVG Version: 6.00 Build 0)  -->
<svg version="1.1" id="Layer_1" xmlns="http://www.w3.org/2000/svg" xmlns:xlink="http://www.w3.org/1999/xlink" x="0px" y="0px"
	 viewBox="-133 135 32 32" style="enable-background:new -133 135 32 32;" xml:space="preserve">
<style type="text/css">
	.st0{fill:none;stroke:#FFFFFF;stroke-width:2;stroke-linecap:round;stroke-linejoin:round;stroke-miterlimit:10;}
	.st1{fill:#FFFFFF;}
</style>
<g>
	<polyline class="st0" points="516,273 542,273 542,291 528,291 	"/>
	<polyline class="st0" points="520,291 516,291 516,277 	"/>
	<polyline class="st0" points="528,291 520,297 520,291 	"/>
</g>
<path class="st1" d="M-105.1,145.6c-0.1-0.1-0.1-0.2-0.2-0.3l-8-8c-0.1-0.1-0.2-0.2-0.3-0.2c-0.1-0.1-0.3-0.1-0.4-0.1h-14
	c-0.6,0-1,0.4-1,1s0.4,1,1,1h13v7c0,0.6,0.4,1,1,1h7v16h-20v-21c0-0.6-0.4-1-1-1s-1,0.4-1,1v22c0,0.6,0.4,1,1,1h22c0.6,0,1-0.4,1-1
	v-18C-105,145.9-105,145.7-105.1,145.6z M-113,140.4l4.6,4.6h-4.6V140.4z"/>
</svg>
