<?xml version="1.0" encoding="utf-8"?>
<!-- Generator: Adobe Illustrator 19.0.1, SVG Export Plug-In . SVG Version: 6.00 Build 0)  -->
<svg version="1.1" id="Layer_1" xmlns="http://www.w3.org/2000/svg" xmlns:xlink="http://www.w3.org/1999/xlink" x="0px" y="0px"
	 viewBox="-125 127 48 48" style="enable-background:new -125 127 48 48;" xml:space="preserve">
<style type="text/css">
	.st0{fill:#FFFFFF;}
	.st1{fill:none;}
</style>
<path class="st0" d="M-84.4,141.5h-33.2c-3.9,0-7.1,3.2-7.1,7.1v14.2h9.5v9.5h28.4v-9.5h9.5v-14.2
	C-77.3,144.7-80.5,141.5-84.4,141.5z M-91.5,167.6h-19v-11.9h19V167.6z M-84.4,151c-1.3,0-2.4-1.1-2.4-2.4s1.1-2.4,2.4-2.4
	s2.4,1.1,2.4,2.4S-83.1,151-84.4,151z M-86.8,129.7h-28.4v9.5h28.4V129.7z"/>
<path class="st1" d="M-250,254h48v48h-48V254z"/>
</svg>
