<?xml version="1.0" encoding="utf-8"?>
<!-- Generator: Adobe Illustrator 19.0.1, SVG Export Plug-In . SVG Version: 6.00 Build 0)  -->
<svg version="1.1" id="Layer_1" xmlns="http://www.w3.org/2000/svg" xmlns:xlink="http://www.w3.org/1999/xlink" x="0px" y="0px"
	 viewBox="-125 127 48 48" style="enable-background:new -125 127 48 48;" xml:space="preserve">
<style type="text/css">
	.st0{fill:#FFFFFF;}
	.st1{fill:none;}
</style>
<path class="st0" d="M-87,143h-28c-3.3,0-6,2.7-6,6v12h8v8h24v-8h8v-12C-81,145.7-83.7,143-87,143z M-93,165h-16v-10h16V165z
	 M-87,151c-1.1,0-2-0.9-2-2s0.9-2,2-2s2,0.9,2,2S-85.9,151-87,151z M-89,133h-24v8h24V133z"/>
<path class="st1" d="M-125,127h48v48h-48V127z"/>
</svg>
