<?xml version="1.0" ?><!DOCTYPE svg  PUBLIC '-//W3C//DTD SVG 1.1//EN'  'http://www.w3.org/Graphics/SVG/1.1/DTD/svg11.dtd'><svg enable-background="new 0 0 32 32" height="32px" id="Layer_1" version="1.1" viewBox="0 0 32 32" width="32px" xml:space="preserve" xmlns="http://www.w3.org/2000/svg" xmlns:xlink="http://www.w3.org/1999/xlink"><g><polyline fill="none" points="   649,137.999 675,137.999 675,155.999 661,155.999  " stroke="#FFFFFF" stroke-linecap="round" stroke-linejoin="round" stroke-miterlimit="10" stroke-width="2"/><polyline fill="none" points="   653,155.999 649,155.999 649,141.999  " stroke="#FFFFFF" stroke-linecap="round" stroke-linejoin="round" stroke-miterlimit="10" stroke-width="2"/><polyline fill="none" points="   661,156 653,162 653,156  " stroke="#FFFFFF" stroke-linecap="round" stroke-linejoin="round" stroke-miterlimit="10" stroke-width="2"/></g><path d="M27.922,10.615c-0.051-0.122-0.124-0.231-0.216-0.323l-7.998-7.998c-0.092-0.092-0.201-0.165-0.323-0.216  C19.264,2.027,19.134,2,19,2H5C4.448,2,4,2.448,4,3s0.448,1,1,1h13v7c0,0.552,0.447,1,1,1h7v16H6V7c0-0.552-0.448-1-1-1S4,6.448,4,7  v22c0,0.553,0.448,1,1,1h22c0.553,0,1-0.447,1-1V11C28,10.867,27.973,10.736,27.922,10.615z M20,5.414L24.586,10H20V5.414z"/></svg>