<?xml version="1.0" encoding="utf-8"?>
<!-- Generator: Adobe Illustrator 19.0.1, SVG Export Plug-In . SVG Version: 6.00 Build 0)  -->
<svg version="1.1" id="Layer_1" xmlns="http://www.w3.org/2000/svg" xmlns:xlink="http://www.w3.org/1999/xlink" x="0px" y="0px"
	 viewBox="0 0 308.9 64.2" style="enable-background:new 0 0 308.9 64.2;" xml:space="preserve">
<style type="text/css">
	.st0{fill:#E28B05;}
	.st1{fill:#1A171B;}
	.st2{fill:#FFD60B;}
</style>
<g id="XMLID_7_">
	<g id="XMLID_1_">
		<g id="XMLID_779_">
			<path id="XMLID_787_" class="st0" d="M29.5,37.1c0.1-0.1,0.3-0.2,0.4-0.3c0.1-0.1,0.2-0.2,0.3-0.3c3.2-4.1,4-8.6,2.3-13.5
				C30,15.5,24,11.7,14.7,11.6c-3.6,0-4.8,0.2-5.4,0.3c0,0-0.1,0-0.1,0c-1.1,0.4-2.3,1.2-3.6,2.5c-1.2,1.2-2,2.6-2.4,4
				c-0.3,1.1-0.6,3.4-0.9,7.2C2.1,28,2,30.6,2,33.2c0,3.2,0.1,6.7,0.4,10.3c0.5,9.2,1.3,11.6,1.9,12.7c1.9,2.9,5.5,4.7,10.7,5.5
				c1.4,0.2,2.7,0.3,3.9,0.3c3.5,0,6.6-0.9,9.1-2.7c2.5-1.8,4.1-3.3,4.9-4.7c0.9-1.4,1.3-3.6,1.3-6.5c0-2.4-0.5-4.7-1.5-6.8
				C31.8,39.3,30.8,37.9,29.5,37.1z M19.5,31.8c-2.2,1.3-4.7,1.9-7.3,2c0-2.2,0-4.5,0.1-6.6c0.1-2.3,0.4-4.1,1.1-5.3
				c0.4-0.5,1.1-1.1,2.7-1.1c0.5,0,1.1,0.1,1.7,0.2c1.4,0.3,2.6,1.2,3.8,2.6c1.1,1.2,1.6,2.4,1.6,3.5C23.1,28.9,21.9,30.4,19.5,31.8
				z M13.1,44.4c0.5-0.1,1.7-0.3,4.7-0.5h0.8c1.7,0,3.1,0.4,4,1.1c0.6,0.4,1.3,1.2,1.3,3v0.2c0,1.3-0.1,1.8-0.2,1.9
				c-0.1,0.1-0.4,0.3-1,0.5c0,0-0.1,0-0.1,0.1c-1.1,0.6-2.7,0.8-4.7,0.8c-2.5,0-3.6-0.5-4-0.8c-0.4-0.3-0.6-0.6-0.7-0.9
				c-0.1-0.2-0.3-0.9-0.3-2.9C12.9,45.4,13,44.7,13.1,44.4z"/>
			<path id="XMLID_780_" class="st1" d="M18.9,64c-1.3,0-2.7-0.1-4.1-0.3c-5.8-0.9-9.9-3-12.1-6.4c-1-1.7-1.7-4.5-2.3-13.7
				C0.1,40,0,36.5,0,33.2c0-2.7,0.1-5.3,0.3-7.7c0.4-3.9,0.7-6.2,1-7.5c0.4-1.8,1.4-3.4,2.9-4.9c1.6-1.5,3-2.5,4.4-3
				c0.1,0,0.2-0.1,0.2-0.1c0.8-0.2,2.1-0.4,5.9-0.4c10.1,0.1,16.9,4.5,19.7,12.7c1.8,5.3,1,10.2-2.1,14.6c0.8,0.9,1.5,2.1,2.2,3.5
				c1.1,2.4,1.7,4.9,1.7,7.6c0,3.3-0.5,5.8-1.6,7.6c-0.9,1.6-2.6,3.3-5.4,5.3C26.3,63,22.8,64,18.9,64z M14.7,13.6
				c-2.5,0-4.1,0.1-4.9,0.3c-0.8,0.3-1.7,0.9-2.8,2c-1,1-1.6,2-1.9,3c-0.3,1.1-0.6,3.3-0.9,6.9C4.1,28.1,4,30.6,4,33.2
				c0,3.1,0.1,6.6,0.4,10.2C4.7,50.1,5.3,54,6,55.2c1.5,2.3,4.6,3.9,9.3,4.6c1.3,0.2,2.5,0.3,3.6,0.3c3.1,0,5.8-0.8,8-2.3
				c2.2-1.6,3.6-2.9,4.3-4.1c0.7-1.2,1.1-3,1.1-5.5c0-2.1-0.4-4.1-1.3-6c-0.7-1.7-1.5-2.8-2.4-3.3c-0.5-0.3-0.9-0.9-0.9-1.6
				c0-0.6,0.2-1.3,0.8-1.7l0.4-0.3c2.8-3.6,3.4-7.4,2-11.6C28.4,16.9,23.2,13.7,14.7,13.6z M17.9,53.5c-2.4,0-4.1-0.4-5.2-1.1
				c-0.7-0.5-1.2-1.1-1.5-1.8c-0.3-0.7-0.4-1.9-0.4-3.6c0-1.4,0.1-2.5,0.3-3.2c0.2-0.7,0.7-1.2,1.4-1.3c0.9-0.2,2.6-0.4,5-0.6
				c0,0,0.1,0,0.1,0h0.8c2.2,0,3.9,0.5,5.2,1.5c1.4,1,2.1,2.6,2.1,4.6v0.2c0,1.1-0.1,1.9-0.2,2.5c-0.1,0.4-0.3,0.7-0.6,1
				c-0.4,0.3-0.9,0.6-1.5,0.9C22.1,53.2,20.2,53.5,17.9,53.5z M15,49.1c0,0,0.7,0.4,2.9,0.4c2.1,0,3.2-0.3,3.8-0.6
				c0.1,0,0.1-0.1,0.2-0.1c0-0.2,0-0.4,0-0.7v-0.2c0-1.1-0.3-1.3-0.5-1.4c-0.6-0.5-1.6-0.7-2.9-0.7h-0.7c-1.4,0.1-2.3,0.2-3,0.2
				c0,0.2,0,0.5,0,0.9C14.8,48.3,14.9,48.9,15,49.1C15,49.1,15,49.1,15,49.1C15,49.1,15,49.1,15,49.1z M12.2,35.7
				c-0.5,0-1-0.2-1.4-0.6c-0.4-0.4-0.6-0.9-0.6-1.4c0-2.2,0-4.5,0.1-6.7c0.1-2.7,0.5-4.7,1.4-6.2c0-0.1,0.1-0.2,0.2-0.2
				c0.9-1.2,2.4-1.8,4.2-1.8c0.7,0,1.4,0.1,2.2,0.3c1.8,0.5,3.4,1.5,4.8,3.2c1.3,1.5,2,3.2,2.1,4.8c-0.1,2.5-1.6,4.7-4.7,6.4l0,0
				C17.9,34.9,15.2,35.7,12.2,35.7C12.2,35.7,12.2,35.7,12.2,35.7z M15,23c-0.3,0.7-0.7,1.9-0.7,4.2c0,1.5-0.1,2.9-0.1,4.4
				c1.5-0.3,2.9-0.8,4.3-1.5l0,0c2.6-1.5,2.7-2.6,2.7-3c0-0.6-0.4-1.3-1.1-2.2c-0.9-1.1-1.7-1.7-2.7-1.9c-0.5-0.1-0.9-0.2-1.3-0.2
				C15.4,22.8,15.1,22.9,15,23z"/>
		</g>
		<g id="XMLID_703_">
			<path id="XMLID_731_" class="st2" d="M29.5,27.5c0.1-0.1,0.3-0.2,0.4-0.3c0.1-0.1,0.2-0.2,0.3-0.3c3.2-4.1,4-8.6,2.3-13.5
				C30,5.9,24,2.1,14.7,2c-3.6,0-4.8,0.2-5.4,0.3c0,0-0.1,0-0.1,0C8.1,2.7,6.9,3.5,5.6,4.9c-1.2,1.2-2,2.6-2.4,4
				C2.9,10,2.6,12.3,2.3,16C2.1,18.4,2,20.9,2,23.6c0,3.2,0.1,6.7,0.4,10.3c0.5,9.2,1.3,11.6,1.9,12.7c1.9,2.9,5.5,4.7,10.7,5.5
				c1.4,0.2,2.7,0.3,3.9,0.3c3.5,0,6.6-0.9,9.1-2.7c2.5-1.8,4.1-3.3,4.9-4.7c0.9-1.4,1.3-3.6,1.3-6.5c0-2.4-0.5-4.7-1.5-6.8
				C31.8,29.6,30.8,28.3,29.5,27.5z M19.5,22.1c-2.2,1.3-4.7,1.9-7.3,2c0-2.2,0-4.5,0.1-6.6c0.1-2.3,0.4-4.1,1.1-5.3
				c0.4-0.5,1.1-1.1,2.7-1.1c0.5,0,1.1,0.1,1.7,0.2c1.4,0.3,2.6,1.2,3.8,2.6c1.1,1.2,1.6,2.4,1.6,3.5C23.1,19.2,21.9,20.8,19.5,22.1
				z M13.1,34.7c0.5-0.1,1.7-0.3,4.7-0.5h0.8c1.7,0,3.1,0.4,4,1.1c0.6,0.4,1.3,1.2,1.3,3v0.2c0,1.3-0.1,1.8-0.2,1.9
				c-0.1,0.1-0.4,0.3-1,0.5c0,0-0.1,0-0.1,0.1c-1.1,0.6-2.7,0.8-4.7,0.8c-2.5,0-3.6-0.5-4-0.8c-0.4-0.3-0.6-0.6-0.7-0.9
				c-0.1-0.2-0.3-0.9-0.3-2.9C12.9,35.8,13,35,13.1,34.7z"/>
			<path id="XMLID_735_" class="st1" d="M18.9,54.4c-1.3,0-2.7-0.1-4.1-0.3c-5.8-0.9-9.9-3-12.1-6.4C1.6,46,0.9,43.1,0.4,34
				C0.1,30.3,0,26.8,0,23.6c0-2.7,0.1-5.3,0.3-7.7c0.4-3.9,0.7-6.2,1-7.5c0.4-1.8,1.4-3.4,2.9-4.9c1.6-1.5,3-2.5,4.4-3
				c0.1,0,0.2-0.1,0.2-0.1C9.6,0.2,11,0,14.7,0c10.1,0.1,16.9,4.5,19.7,12.7c1.8,5.3,1,10.2-2.1,14.6c0.8,0.9,1.5,2.1,2.2,3.5
				c1.1,2.4,1.7,4.9,1.7,7.6c0,3.3-0.5,5.8-1.6,7.6c-0.9,1.6-2.6,3.3-5.4,5.3C26.3,53.3,22.8,54.4,18.9,54.4z M14.7,4
				c-2.5,0-4.1,0.1-4.9,0.3C9,4.5,8.1,5.2,7,6.3c-1,1-1.6,2-1.9,3c-0.3,1.1-0.6,3.3-0.9,6.9C4.1,18.5,4,21,4,23.6
				c0,3.1,0.1,6.6,0.4,10.2C4.7,40.5,5.3,44.3,6,45.5c1.5,2.3,4.6,3.9,9.3,4.6c1.3,0.2,2.5,0.3,3.6,0.3c3.1,0,5.8-0.8,8-2.3
				c2.2-1.6,3.6-2.9,4.3-4.1c0.7-1.2,1.1-3,1.1-5.5c0-2.1-0.4-4.1-1.3-6c-0.7-1.7-1.5-2.8-2.4-3.3c-0.5-0.3-0.9-0.9-0.9-1.6
				c0-0.6,0.2-1.3,0.8-1.7l0.4-0.3c2.8-3.6,3.4-7.4,2-11.6C28.4,7.3,23.2,4,14.7,4z M17.9,43.9c-2.4,0-4.1-0.4-5.2-1.1
				c-0.7-0.5-1.2-1.1-1.5-1.8c-0.3-0.7-0.4-1.9-0.4-3.6c0-1.4,0.1-2.5,0.3-3.2c0.2-0.7,0.7-1.2,1.4-1.3c0.9-0.2,2.6-0.4,5-0.6
				c0,0,0.1,0,0.1,0h0.8c2.2,0,3.9,0.5,5.2,1.5c1.4,1,2.1,2.6,2.1,4.6v0.2c0,1.1-0.1,1.9-0.2,2.5c-0.1,0.4-0.3,0.7-0.6,1
				c-0.4,0.3-0.9,0.6-1.5,0.9C22.1,43.5,20.2,43.9,17.9,43.9z M15,39.5c0,0,0.7,0.4,2.9,0.4c2.1,0,3.2-0.3,3.8-0.6
				c0.1,0,0.1-0.1,0.2-0.1c0-0.2,0-0.4,0-0.7v-0.2c0-1.1-0.3-1.3-0.5-1.4c-0.6-0.5-1.6-0.7-2.9-0.7h-0.7c-1.4,0.1-2.3,0.2-3,0.2
				c0,0.2,0,0.5,0,0.9C14.8,38.6,14.9,39.2,15,39.5C15,39.5,15,39.5,15,39.5C15,39.5,15,39.5,15,39.5z M12.2,26.1
				c-0.5,0-1-0.2-1.4-0.6c-0.4-0.4-0.6-0.9-0.6-1.4c0-2.2,0-4.5,0.1-6.7c0.1-2.7,0.5-4.7,1.4-6.2c0-0.1,0.1-0.2,0.2-0.2
				c0.9-1.2,2.4-1.8,4.2-1.8c0.7,0,1.4,0.1,2.2,0.3c1.8,0.5,3.4,1.5,4.8,3.2c1.3,1.5,2,3.2,2.1,4.8c-0.1,2.5-1.6,4.7-4.7,6.4l0,0
				C17.9,25.3,15.2,26,12.2,26.1C12.2,26.1,12.2,26.1,12.2,26.1z M15,13.3c-0.3,0.7-0.7,1.9-0.7,4.2c0,1.5-0.1,2.9-0.1,4.4
				c1.5-0.3,2.9-0.8,4.3-1.5l0,0c2.6-1.5,2.7-2.6,2.7-3c0-0.6-0.4-1.3-1.1-2.2c-0.9-1.1-1.7-1.7-2.7-1.9c-0.5-0.1-0.9-0.2-1.3-0.2
				C15.4,13.1,15.1,13.2,15,13.3z"/>
		</g>
	</g>
	<g id="XMLID_2_">
		<g id="XMLID_774_">
			<path id="XMLID_778_" class="st0" d="M74.7,32.3c-0.3-1.9-1.6-3.1-3.4-3.3c-0.1,0-0.2,0-0.3,0h-0.3c-1,0-2.4,0.3-3.9,2
				c-0.7,0.9-1.3,2.6-1.3,12l0,1.8c0.1,6,0.3,9.8,0.7,11.7c0.6,2.6,2.3,4,4.7,4c2.4,0,4.1-1.5,4.6-4.1c0.1-0.9,0.2-2.4,0.2-4.5
				c0-1.7-0.1-4-0.2-6.7C75.4,38.5,75.1,34.3,74.7,32.3z"/>
			<path id="XMLID_775_" class="st1" d="M71,62.5c-3.3,0-5.8-2.1-6.6-5.6c-0.5-2-0.7-5.8-0.8-12.1l0-1.9c0-10,0.8-11.8,1.7-13.2
				c2-2.3,4-2.8,5.4-2.8h0.3c0.2,0,0.4,0,0.5,0c2.7,0.4,4.6,2.2,5.1,4.9c0.4,2.2,0.7,6.4,0.9,13.2c0.1,2.7,0.2,5,0.2,6.7
				c0,2.2-0.1,3.8-0.2,4.8C76.8,60.3,74.4,62.5,71,62.5z M70.8,30.9c-0.8,0-1.6,0.4-2.3,1.3c-0.6,0.8-0.9,4.3-0.9,10.7l0,1.8
				c0.1,5.8,0.3,9.6,0.7,11.2c0.4,1.7,1.3,2.5,2.7,2.5c0.5,0,2.2,0,2.7-2.5c0.1-0.7,0.2-2.2,0.2-4.1c0-1.7-0.1-3.9-0.2-6.6
				c-0.2-6.5-0.5-10.7-0.9-12.6c0,0,0,0,0,0c-0.2-1-0.7-1.6-1.7-1.7H70.8z"/>
		</g>
		<g id="XMLID_702_">
			<path id="XMLID_700_" class="st2" d="M74.7,22.6c-0.3-1.9-1.6-3.1-3.4-3.3c-0.1,0-0.2,0-0.3,0h-0.3c-1,0-2.4,0.3-3.9,2
				c-0.7,0.9-1.3,2.6-1.3,12l0,1.8c0.1,6,0.3,9.8,0.7,11.7c0.6,2.6,2.3,4,4.7,4c2.4,0,4.1-1.5,4.6-4.1c0.1-0.9,0.2-2.4,0.2-4.5
				c0-1.7-0.1-4-0.2-6.7C75.4,28.9,75.1,24.7,74.7,22.6z"/>
			<path id="XMLID_701_" class="st1" d="M71,52.8c-3.3,0-5.8-2.1-6.6-5.6c-0.5-2-0.7-5.8-0.8-12.1l0-1.9c0-10,0.8-11.8,1.7-13.2
				c2-2.3,4-2.8,5.4-2.8h0.3c0.2,0,0.4,0,0.5,0c2.7,0.4,4.6,2.2,5.1,4.9c0.4,2.2,0.7,6.4,0.9,13.2c0.1,2.7,0.2,5,0.2,6.7
				c0,2.2-0.1,3.8-0.2,4.8C76.8,50.7,74.4,52.8,71,52.8z M70.8,21.3c-0.8,0-1.6,0.4-2.3,1.3c-0.6,0.8-0.9,4.3-0.9,10.7l0,1.8
				c0.1,5.8,0.3,9.6,0.7,11.2c0.4,1.7,1.3,2.5,2.7,2.5c0.5,0,2.2,0,2.7-2.5c0.1-0.7,0.2-2.2,0.2-4.1c0-1.7-0.1-3.9-0.2-6.6
				c-0.2-6.5-0.5-10.7-0.9-12.6c0,0,0,0,0,0c-0.2-1-0.7-1.6-1.7-1.7H70.8z"/>
		</g>
	</g>
	<g id="XMLID_3_">
		<g id="XMLID_766_">
			<path id="XMLID_771_" class="st0" d="M117.4,47.7c5.5,0.4,10-1.5,13.5-5.3c2.2-2.4,3.3-4.8,3.3-7.3c0-0.9-0.2-1.9-0.5-2.8
				c0,0,0-0.1,0-0.1c-1-2.5-3.8-4-8.7-4.7c-4.3-0.5-8.1,0-10.9,1.7c-2,1.2-3.7,3.2-5.2,6c-1.5,2.7-2.4,5.5-2.7,8.3
				c-0.1,1-0.2,1.9-0.2,2.8c0,5.9,2.5,13.2,14.3,14c1.4,0.1,2.6,0.2,3.6,0.2c0.9,0,1.5,0,2-0.2c1.1-0.3,2.3-1,3.6-2.3
				c1.6-1.6,2.3-2.8,2.3-4c0-2.9,3.5-6.2-1-6.5c-4.3-0.2-13.2,1.9-13.7,1.7c-0.4-0.2-0.8-0.5-1-1.5
				C116.3,47.7,116.8,47.7,117.4,47.7z M122.2,36.8c-0.1,0.1-0.2,0.1-0.4,0.2c-1.2,0.6-2.2,1-3.2,1.1c0.1-0.1,0.2-0.2,0.4-0.3
				C119.9,37.3,121,36.9,122.2,36.8z"/>
			<path id="XMLID_767_" class="st1" d="M123.8,62.4c-1,0-2.3-0.1-3.7-0.2c-14-1-16.1-10.4-16.1-16c0-1,0.1-2,0.2-3.1
				c0.4-3,1.4-6,2.9-8.9c1.7-3.1,3.7-5.4,5.9-6.8c3.2-1.9,7.3-2.6,12.2-2c5.6,0.8,9.5-4.9,10.8-1.7c0,0.1,0.1,0.2,0.1,0.2
				c0.4,1.2,0.1,9.9,0.1,11.1c0,3-1.3,5.9-3.9,8.7c-1.9,2.1,1.6-2.1-0.8-1.1c3.8,0.4,2.5,5.9,2.2,11.4c-0.1,2.2-1.5,4-2.9,5.4
				c-1.6,1.5-3.1,2.4-4.5,2.8C125.5,62.3,124.8,62.4,123.8,62.4z M121.8,29.2c-2.7,0-5,0.5-6.7,1.6c-1.6,1-3.2,2.8-4.5,5.3
				c-1.3,2.5-2.2,5-2.5,7.6c-0.1,0.9-0.2,1.8-0.2,2.5c0,7.4,4.2,11.4,12.4,12c1.4,0.1,2.5,0.2,3.4,0.2c0.7,0,1.2,0,1.6-0.1
				c0.7-0.2,1.6-0.8,2.6-1.8c1.1-1.1,1.6-2,1.7-2.6c0.4-5.2,0.8-7.5-1-7.7c-3.5-0.2-11.5,5.2-12.7,4.6c-1-0.5-1.7-1.5-2-2.8
				c-0.1-0.6,0-1.2,0.4-1.6c0.4-0.5,0.9-0.7,1.5-0.8c0.4,0,0.9,0,1.5,0c0,0,0,0,0.1,0c4.8,0.3,8.8-1.3,11.9-4.7c1.9-2,2.8-4,2.8-6
				c0-0.7,0.4-9,0.1-9.8c-0.7-1.7-3.6,4.7-7.6,4.1C123.7,29.2,122.7,29.2,121.8,29.2z M118.7,40.2c-0.8,0-1.5-0.4-1.8-1.1
				c-0.4-0.8-0.2-1.7,0.5-2.3c0.1-0.1,0.3-0.3,0.5-0.4c1.2-0.9,2.6-1.4,4.3-1.5c0.9-0.1,1.7,0.5,2,1.4c0.3,0.9-0.1,1.8-0.9,2.3
				c-0.1,0.1-0.3,0.2-0.4,0.2c-1.3,0.7-2.6,1.2-3.8,1.3C118.9,40.2,118.8,40.2,118.7,40.2z"/>
		</g>
		<g id="XMLID_699_">
			<path id="XMLID_689_" class="st2" d="M117.4,38c5.5,0.4,10-1.5,13.5-5.3c2.2-2.4,3.3-4.8,3.3-7.3c0-0.9-0.2-1.9-0.5-2.8
				c0,0,0-0.1,0-0.1c-1-2.5-3.8-4-8.7-4.7c-4.3-0.5-8.1,0-10.9,1.7c-2,1.2-3.7,3.2-5.2,6c-1.5,2.7-2.4,5.5-2.7,8.3
				c-0.1,1-0.2,1.9-0.2,2.8c0,5.9,2.5,13.2,14.3,14c1.4,0.1,2.6,0.2,3.6,0.2c0.9,0,1.5,0,2-0.2c1.1-0.3,2.3-1,3.6-2.3
				c1.6-1.6,2.3-2.8,2.3-4c0-2.9-4.1-3.5-8.6-3.8c-4.3-0.2-5.7-0.8-6.1-1c-0.4-0.2-0.8-0.5-1-1.5C116.3,38,116.8,38,117.4,38z
				 M122.2,27.2c-0.1,0.1-0.2,0.1-0.4,0.2c-1.2,0.6-2.2,1-3.2,1.1c0.1-0.1,0.2-0.2,0.4-0.3C119.9,27.6,121,27.3,122.2,27.2z"/>
			<path id="XMLID_725_" class="st1" d="M123.8,52.7c-1,0-2.3-0.1-3.7-0.2c-14-1-16.1-10.4-16.1-16c0-1,0.1-2,0.2-3.1
				c0.4-3,1.4-6,2.9-8.9c1.7-3.1,3.7-5.4,5.9-6.8c3.2-1.9,7.3-2.6,12.2-2c5.6,0.8,9,2.7,10.3,5.9c0,0.1,0.1,0.2,0.1,0.2
				c0.4,1.2,0.6,2.3,0.6,3.5c0,3-1.3,5.9-3.9,8.7c-1.9,2.1-4.1,3.7-6.6,4.7c3.8,0.4,7.9,1.5,7.9,5.6c0,2.2-1.5,4-2.9,5.4
				c-1.6,1.5-3.1,2.4-4.5,2.8C125.5,52.7,124.8,52.7,123.8,52.7z M121.8,19.5c-2.7,0-5,0.5-6.7,1.6c-1.6,1-3.2,2.8-4.5,5.3
				c-1.3,2.5-2.2,5-2.5,7.6c-0.1,0.9-0.2,1.8-0.2,2.5c0,7.4,4.2,11.4,12.4,12c1.4,0.1,2.5,0.2,3.4,0.2c0.7,0,1.2,0,1.6-0.1
				c0.7-0.2,1.6-0.8,2.6-1.8c1.1-1.1,1.7-2,1.7-2.6c0-1.3-4.9-1.7-6.8-1.8c-3.5-0.2-5.7-0.6-6.9-1.3c-1-0.5-1.7-1.5-2-2.8
				c-0.1-0.6,0-1.2,0.4-1.6c0.4-0.5,0.9-0.7,1.5-0.8c0.4,0,0.9,0,1.5,0c0,0,0,0,0.1,0c4.8,0.3,8.8-1.3,11.9-4.7c1.9-2,2.8-4,2.8-6
				c0-0.7-0.1-1.4-0.4-2.2c-0.7-1.7-3.1-2.9-7.2-3.5C123.7,19.6,122.7,19.5,121.8,19.5z M118.7,30.5c-0.8,0-1.5-0.4-1.8-1.1
				c-0.4-0.8-0.2-1.7,0.5-2.3c0.1-0.1,0.3-0.3,0.5-0.4c1.2-0.9,2.6-1.4,4.3-1.5c0.9-0.1,1.7,0.5,2,1.4c0.3,0.9-0.1,1.8-0.9,2.3
				c-0.1,0.1-0.3,0.2-0.4,0.2c-1.3,0.7-2.6,1.2-3.8,1.3C118.9,30.5,118.8,30.5,118.7,30.5z"/>
		</g>
	</g>
	<g id="XMLID_4_">
		<g id="XMLID_755_">
			<path id="XMLID_763_" class="st0" d="M189.4,32.6c-2.7-1.9-6-3.1-9.7-3.4c-1.8-0.2-2.5-0.4-2.7-0.4c-0.1-0.1-0.2-0.4-0.3-0.9
				c0-0.2-0.2-1-0.3-4.6c-0.2-3.2-0.6-5-1.4-6c0,0,0-0.1-0.1-0.1c-0.8-0.9-1.6-1.5-2.5-1.6c-0.9-0.1-1.8,0.2-3,1
				c-1.5,0.9-3,3.1-3,16.8c0,2.7,0.1,5.7,0.2,8.9c0.3,7.4,0.5,11.9,0.7,13.6c0.3,2.3,1,3.8,2.3,4.7c1.5,1,3.6,1.5,6.3,1.5
				c1.4,0,3.1-0.1,4.9-0.4c5.2-0.8,8.7-2.4,10.9-4.7c2.4-2.6,4-5.5,4.5-8.6c0.2-1.1,0.3-2.1,0.3-3.1c0-2-0.4-3.9-1.2-5.7
				C194.1,36.8,192.1,34.5,189.4,32.6z M185.7,45.9c0,0.6-0.1,1.1-0.3,1.7c0,0,0,0,0,0c-0.3,1-1.3,1.9-2.9,2.5
				c-1.4,0.6-2.9,0.9-4.4,0.9c-0.3-5.5-0.5-9.3-0.6-11.1c0.4,0,0.9,0,1.5,0.1c1.8,0.2,3.3,0.6,4.3,1.3c0.9,0.5,1.5,1.4,1.9,2.6
				C185.5,44.6,185.7,45.2,185.7,45.9z"/>
			<path id="XMLID_757_" class="st1" d="M175.8,64c-3.1,0-5.6-0.6-7.4-1.8c-1.8-1.2-2.8-3.2-3.2-6.1c-0.2-1.8-0.4-6.3-0.7-13.8
				c-0.1-3.3-0.2-6.3-0.2-9c0-13.4,1.4-16.8,3.9-18.4c1.1-0.7,2.7-1.5,4.4-1.2c1.3,0.2,2.5,1,3.7,2.2c0,0,0.1,0.1,0.1,0.1
				c1.1,1.4,1.7,3.5,1.8,7.2c0.1,2.2,0.2,3.3,0.2,3.8c0.3,0,0.8,0.1,1.3,0.2c4.1,0.4,7.7,1.7,10.6,3.8c3,2.1,5.2,4.7,6.6,7.7
				c0.9,2.1,1.4,4.3,1.4,6.6c0,1.1-0.1,2.3-0.4,3.5c-0.6,3.5-2.3,6.7-5,9.5c-2.5,2.7-6.4,4.4-12,5.3C179.1,63.9,177.4,64,175.8,64z
				 M172,17.5c-0.2,0-0.7,0.1-1.6,0.7c-1.4,0.9-2.1,6-2.1,15.1c0,2.6,0.1,5.6,0.2,8.8c0.3,7.3,0.5,11.8,0.7,13.5
				c0.3,2.5,1.2,3.1,1.4,3.3c1.8,1.2,5.1,1.5,9.8,0.8c4.7-0.8,7.9-2.1,9.8-4.1c2.2-2.3,3.5-4.8,4-7.6c0.2-1,0.3-1.9,0.3-2.7
				c0-1.7-0.4-3.4-1.1-4.9c-1.1-2.4-2.9-4.4-5.3-6.2c-2.4-1.7-5.4-2.8-8.7-3.1c-1.4-0.1-2.4-0.3-3-0.5c-0.6-0.1-1-0.5-1.3-1
				c-0.2-0.3-0.3-0.8-0.4-1.3c-0.1-0.6-0.3-2.2-0.4-4.9c-0.1-2.6-0.5-4.3-1-4.9C172.6,17.6,172.2,17.6,172,17.5
				C172.1,17.5,172,17.5,172,17.5z M178.1,53c-1,0-1.9-0.8-2-1.9c-0.3-5.6-0.5-9.3-0.6-11.2c0-1.1,0.8-2,1.9-2c0.5,0,1.1,0,1.8,0.1
				c2.1,0.3,3.8,0.8,5.1,1.5c1.3,0.8,2.2,2,2.8,3.7c0.3,0.9,0.5,1.8,0.5,2.7c0,0.8-0.1,1.5-0.4,2.3c-0.5,1.6-1.9,2.9-4,3.7
				C181.6,52.6,179.9,53,178.1,53C178.1,53,178.1,53,178.1,53z M179.6,42.1c0.1,1.7,0.2,3.9,0.4,6.8c0.6-0.1,1.2-0.3,1.8-0.5
				c1.4-0.6,1.7-1.1,1.8-1.3c0.1-0.4,0.2-0.8,0.2-1.1c0-0.4-0.1-0.9-0.3-1.4c-0.4-1-0.8-1.4-1.1-1.6C181.9,42.7,181,42.3,179.6,42.1
				z"/>
		</g>
		<g id="XMLID_688_">
			<path id="XMLID_716_" class="st2" d="M189.4,22.9c-2.7-1.9-6-3.1-9.7-3.4c-1.8-0.2-2.5-0.4-2.7-0.4c-0.1-0.1-0.2-0.4-0.3-0.9
				c0-0.2-0.2-1-0.3-4.6c-0.2-3.2-0.6-5-1.4-6c0,0,0-0.1-0.1-0.1c-0.8-0.9-1.6-1.5-2.5-1.6c-0.9-0.1-1.8,0.2-3,1
				c-1.5,0.9-3,3.1-3,16.8c0,2.7,0.1,5.7,0.2,8.9c0.3,7.4,0.5,11.9,0.7,13.6c0.3,2.3,1,3.8,2.3,4.7c1.5,1,3.6,1.5,6.3,1.5
				c1.4,0,3.1-0.1,4.9-0.4c5.2-0.8,8.7-2.4,10.9-4.7c2.4-2.6,4-5.5,4.5-8.6c0.2-1.1,0.3-2.1,0.3-3.1c0-2-0.4-3.9-1.2-5.7
				C194.1,27.2,192.1,24.8,189.4,22.9z M185.7,36.3c0,0.6-0.1,1.1-0.3,1.7c0,0,0,0,0,0c-0.3,1-1.3,1.9-2.9,2.5
				c-1.4,0.6-2.9,0.9-4.4,0.9c-0.3-5.5-0.5-9.3-0.6-11.1c0.4,0,0.9,0,1.5,0.1c1.8,0.2,3.3,0.6,4.3,1.3c0.9,0.5,1.5,1.4,1.9,2.6
				C185.5,34.9,185.7,35.6,185.7,36.3z"/>
			<path id="XMLID_719_" class="st1" d="M175.8,54.4c-3.1,0-5.6-0.6-7.4-1.8c-1.8-1.2-2.8-3.2-3.2-6.1c-0.2-1.8-0.4-6.3-0.7-13.8
				c-0.1-3.3-0.2-6.3-0.2-9c0-13.4,1.4-16.8,3.9-18.4c1.1-0.7,2.7-1.5,4.4-1.2c1.3,0.2,2.5,1,3.7,2.2c0,0,0.1,0.1,0.1,0.1
				c1.1,1.4,1.7,3.5,1.8,7.2c0.1,2.2,0.2,3.3,0.2,3.8c0.3,0,0.8,0.1,1.3,0.2c4.1,0.4,7.7,1.7,10.6,3.8c3,2.1,5.2,4.7,6.6,7.7
				c0.9,2.1,1.4,4.3,1.4,6.6c0,1.1-0.1,2.3-0.4,3.5c-0.6,3.5-2.3,6.7-5,9.5c-2.5,2.7-6.4,4.4-12,5.3
				C179.1,54.2,177.4,54.4,175.8,54.4z M172,7.9c-0.2,0-0.7,0.1-1.6,0.7c-1.4,0.9-2.1,6-2.1,15.1c0,2.6,0.1,5.6,0.2,8.8
				c0.3,7.3,0.5,11.8,0.7,13.5c0.3,2.5,1.2,3.1,1.4,3.3c1.8,1.2,5.1,1.5,9.8,0.8c4.7-0.8,7.9-2.1,9.8-4.1c2.2-2.3,3.5-4.8,4-7.6
				c0.2-1,0.3-1.9,0.3-2.7c0-1.7-0.4-3.4-1.1-4.9c-1.1-2.4-2.9-4.4-5.3-6.2c-2.4-1.7-5.4-2.8-8.7-3.1c-1.4-0.1-2.4-0.3-3-0.5
				c-0.6-0.1-1-0.5-1.3-1c-0.2-0.3-0.3-0.8-0.4-1.3c-0.1-0.6-0.3-2.2-0.4-4.9c-0.1-2.6-0.5-4.3-1-4.9C172.6,8,172.2,7.9,172,7.9
				C172.1,7.9,172,7.9,172,7.9z M178.1,43.4c-1,0-1.9-0.8-2-1.9c-0.3-5.6-0.5-9.3-0.6-11.2c0-1.1,0.8-2,1.9-2c0.5,0,1.1,0,1.8,0.1
				c2.1,0.3,3.8,0.8,5.1,1.5c1.3,0.8,2.2,2,2.8,3.7c0.3,0.9,0.5,1.8,0.5,2.7c0,0.8-0.1,1.5-0.4,2.3c-0.5,1.6-1.9,2.9-4,3.7
				C181.6,43,179.9,43.3,178.1,43.4C178.1,43.4,178.1,43.4,178.1,43.4z M179.6,32.4c0.1,1.7,0.2,3.9,0.4,6.8
				c0.6-0.1,1.2-0.3,1.8-0.5c1.4-0.6,1.7-1.1,1.8-1.3c0.1-0.4,0.2-0.8,0.2-1.1c0-0.4-0.1-0.9-0.3-1.4c-0.4-1-0.8-1.4-1.1-1.6
				C181.9,33,181,32.7,179.6,32.4z"/>
		</g>
	</g>
	<g id="XMLID_5_">
		<g id="XMLID_750_">
			<path id="XMLID_754_" class="st0" d="M244.9,46.6C244.9,46.6,244.9,46.6,244.9,46.6c-0.8-0.3-1.3-0.7-1.6-1.2
				c-0.2-0.5-3.9,3.6-4,1c-0.2-2.3-0.3-6.3-0.4-11.9c-0.1-16-1-16.9-1.6-17.6c-1.1-1.3-2.3-2-3.7-2c-1,0-2.4,0.4-3.5,2.3
				c0,0,0,0.1-0.1,0.1c-0.4,0.8-1.2,2.3-1.6,17.6v7.2c0,7.8,0.4,9.9,0.7,10.9c1.1,3.5,3.1,6.1,6,7.8c1.5,0.9,2.9,1.3,4.3,1.3
				c1.5,0,2.8-0.6,3.9-1.7c1.1-1,1.6-2.3,1.6-3.7c0-0.4-0.1-0.7-0.1-1.1C244.3,53.9,246.6,47.2,244.9,46.6z"/>
			<path id="XMLID_751_" class="st1" d="M239.3,64.2c-1.7,0-3.4-0.5-5.3-1.6c-3.3-2-5.6-5-6.9-9c-0.4-1.3-0.8-3.6-0.8-11.5V35
				c0.4-15.8,1.2-17.4,1.8-18.5l0.1-0.2c1.7-2.9,4-3.4,5.3-3.4c1.4,0,3.4,0.5,5.2,2.7c1,1.1,2,2.2,2.1,18.9
				c0.1,5.5,0.2,9.4,0.4,11.7c0.1,2.2,3.7-2.1,3.8-1.7c0.1,0.1,0.2,0.2,0.5,0.3c0,0,0,0,0,0c2.3,0.9,1.3,5.6,1.2,9.1
				c0,0.5,0,2.5,0,3c0,2-0.8,3.7-2.2,5.1C243.2,63.4,241.3,64.2,239.3,64.2z M233.6,16.9c-0.3,0-1.1,0-1.8,1.3
				c-0.6,1.3-1.1,6.9-1.3,16.8l0,7.2c0,5.5,0.2,9,0.6,10.3c0.9,3,2.7,5.2,5.1,6.7c2.3,1.4,4.3,1.4,5.7-0.1c0,0,0.1-0.1,0.1-0.1
				c0.7-0.6,1-1.4,1-2.3c0-0.2,0-2.8,0-3.1c0-2.1,0-6.6-1-6.9c0,0-1.4,0.5-1.4,0.5c-1.2-0.4,1.7,0.1,1.2-0.9
				c-0.1-0.1-0.1-0.2-0.1-0.3c-0.4-1-4,2.6-4.1,0.3c-0.2-2.3-0.3-6.4-0.4-12c-0.1-13.2-0.7-15.9-1.1-16.3
				C234.7,16.9,233.8,16.9,233.6,16.9z"/>
		</g>
		<g id="XMLID_687_">
			<path id="XMLID_685_" class="st2" d="M241.6,42.3C241.6,42.3,241.6,42.3,241.6,42.3c-0.8-0.3-1.3-0.7-1.6-1.2
				c-0.2-0.5-0.5-1.7-0.7-4.4c-0.2-2.3-0.3-6.3-0.4-11.9c-0.1-16-1-16.9-1.6-17.6c-1.1-1.3-2.3-2-3.7-2c-1,0-2.4,0.4-3.5,2.3
				c0,0,0,0.1-0.1,0.1c-0.4,0.8-1.2,2.3-1.6,17.6v7.2c0,7.8,0.4,9.9,0.7,10.9c1.1,3.5,3.1,6.1,6,7.8c1.5,0.9,2.9,1.3,4.3,1.3
				c1.5,0,2.8-0.6,3.9-1.7c1.1-1,1.6-2.3,1.6-3.7c0-0.4-0.1-0.7-0.1-1.1C244.3,44.2,243.2,42.9,241.6,42.3z"/>
			<path id="XMLID_686_" class="st1" d="M239.3,54.5c-1.7,0-3.4-0.5-5.3-1.6c-3.3-2-5.6-5-6.9-9c-0.4-1.3-0.8-3.6-0.8-11.5v-7.2
				c0.4-15.8,1.2-17.4,1.8-18.5l0.1-0.2c1.7-2.9,4-3.4,5.3-3.4c1.4,0,3.4,0.5,5.2,2.7c1,1.1,2,2.2,2.1,18.9
				c0.1,5.5,0.2,9.4,0.4,11.7c0.1,2.2,0.3,3.2,0.5,3.6c0.1,0.1,0.2,0.2,0.5,0.3c0,0,0,0,0,0c2.3,0.9,3.9,2.7,4.4,5.2
				c0.1,0.5,0.2,1,0.2,1.5c0,2-0.8,3.7-2.2,5.1C243.2,53.7,241.3,54.5,239.3,54.5z M233.6,7.2c-0.3,0-1.1,0-1.8,1.3
				c-0.6,1.3-1.1,6.9-1.3,16.8l0,7.2c0,5.5,0.2,9,0.6,10.3c0.9,3,2.7,5.2,5.1,6.7c2.3,1.4,4.3,1.4,5.7-0.1c0,0,0.1-0.1,0.1-0.1
				c0.7-0.6,1-1.4,1-2.3c0-0.2,0-0.4-0.1-0.6c-0.3-1.2-0.9-2-1.9-2.4c0,0,0,0,0,0c-1.2-0.4-2-1.1-2.6-2.1c-0.1-0.1-0.1-0.2-0.1-0.3
				c-0.4-1-0.7-2.7-0.8-5c-0.2-2.3-0.3-6.4-0.4-12c-0.1-13.2-0.7-15.9-1.1-16.3C234.7,7.2,233.8,7.2,233.6,7.2z"/>
		</g>
	</g>
	<g id="XMLID_6_">
		<g id="XMLID_706_">
			<path id="XMLID_747_" class="st0" d="M304.2,32.8C304.2,32.8,304.2,32.8,304.2,32.8c-2.6-3.8-6.2-5.9-10.9-6.5
				c-2.1-0.3-3.6-0.3-4.6-0.1c-1.2,0.3-2.6,1-4.2,2.2c-4.1,2.7-6.9,6.3-8.4,10.7c-0.7,2.1-1.1,4.1-1.1,6.1c0.1,2.2,0.5,4.4,1.4,6.5
				c1.9,4,5,6.6,9.5,7.8c1.4,0.4,2.8,0.5,4.3,0.5c1.6,0,3.1-0.2,4.7-0.5c3.1-0.8,5.6-2.2,7.6-4.2c2.6-2.7,4-6.4,4.4-11
				c0.1-0.7,0.1-1.3,0.1-1.9C306.9,38.8,306,35.5,304.2,32.8z M296.6,42.8c0,0.8-0.1,1.7-0.3,2.5c0,0,0,0,0,0.1
				c-0.3,1.5-0.9,2.5-1.8,3c-0.9,0.7-2.4,1-4.3,1c-2.2,0-3.1-0.4-3.4-0.6c-0.6-0.4-1-1.3-1.2-2.6c-0.1-0.5-0.1-1-0.1-1.4
				c0-2.1,1-4.5,2.9-7c0.7-1,1.6-1.5,2.9-1.7c1.1-0.2,2.1,0.1,3.1,0.8c0.9,0.6,1.5,1.7,1.9,3.4C296.5,41.1,296.6,42,296.6,42.8z"/>
			<path id="XMLID_742_" class="st1" d="M290.1,62.1c-1.6,0-3.2-0.2-4.8-0.6c-5-1.3-8.6-4.3-10.8-8.9c-1-2.4-1.5-4.8-1.6-7.3
				c0-2.3,0.4-4.5,1.2-6.8c1.6-4.8,4.7-8.7,9.1-11.7c1.8-1.4,3.5-2.2,4.9-2.6c1.3-0.3,3-0.2,5.3,0c5.3,0.7,9.4,3.1,12.3,7.4
				c0,0,0,0,0,0c0,0,0,0,0,0c2,3,3.1,6.7,3.1,10.9c0,0.6,0,1.3-0.1,2.1c-0.4,5-2,9.1-4.9,12.1c-2.2,2.3-5.1,3.9-8.5,4.8
				C293.6,61.9,291.8,62.1,290.1,62.1z M290.4,28c-0.5,0-1,0-1.3,0.1c-0.9,0.2-2,0.8-3.4,1.9c0,0-0.1,0.1-0.1,0.1
				c-3.7,2.4-6.3,5.7-7.6,9.6c-0.6,1.9-1,3.7-1,5.5c0.1,1.9,0.5,3.9,1.3,5.8c1.6,3.4,4.3,5.6,8.1,6.7c2.5,0.7,5.3,0.6,8,0
				c2.7-0.7,4.9-1.9,6.6-3.7c2.2-2.3,3.5-5.6,3.8-9.7c0.1-0.7,0.1-1.2,0.1-1.7c0-3.4-0.8-6.3-2.4-8.6c0,0,0,0,0,0h0
				c-2.2-3.3-5.4-5.2-9.5-5.7C292,28.1,291.1,28,290.4,28z M290.1,51.4c-2.6,0-3.9-0.5-4.5-1c-1-0.8-1.7-2.1-2-3.8c0,0,0-0.1,0-0.1
				c-0.1-0.5-0.1-1.1-0.1-1.7c0-2.6,1.1-5.3,3.3-8.2c1-1.4,2.4-2.2,4.2-2.5c1.5-0.3,3,0.1,4.5,1.2c1.3,0.9,2.2,2.4,2.7,4.5
				c0.3,1,0.4,2,0.4,3.1c0,1-0.1,2-0.4,3c-0.5,2-1.3,3.4-2.7,4.3C294.3,51,292.5,51.4,290.1,51.4z M288,47.2c0.2,0,0.8,0.2,2.2,0.2
				c2,0,2.9-0.4,3.2-0.6c0.2-0.1,0.7-0.4,1-1.9c0,0,0-0.1,0-0.1c0.2-0.7,0.3-1.3,0.3-2c0-0.7-0.1-1.4-0.3-2.1
				c-0.4-1.5-0.9-2-1.1-2.2c-0.8-0.6-1.2-0.6-1.6-0.5c-1,0.1-1.4,0.5-1.7,0.9c-1.7,2.2-2.5,4.2-2.5,5.8c0,0.4,0,0.8,0.1,1.2
				C287.7,46.7,287.9,47,288,47.2z"/>
		</g>
		<g id="XMLID_684_">
			<path id="XMLID_682_" class="st2" d="M304.2,23.1C304.2,23.1,304.2,23.1,304.2,23.1c-2.6-3.8-6.2-5.9-10.9-6.5
				c-2.1-0.3-3.6-0.3-4.6-0.1c-1.2,0.3-2.6,1-4.2,2.2c-4.1,2.7-6.9,6.3-8.4,10.7c-0.7,2.1-1.1,4.1-1.1,6.1c0.1,2.2,0.5,4.4,1.4,6.5
				c1.9,4,5,6.6,9.5,7.8c1.4,0.4,2.8,0.5,4.3,0.5c1.6,0,3.1-0.2,4.7-0.5c3.1-0.8,5.6-2.2,7.6-4.2c2.6-2.7,4-6.4,4.4-11
				c0.1-0.7,0.1-1.3,0.1-1.9C306.9,29.1,306,25.8,304.2,23.1z M296.6,33.2c0,0.8-0.1,1.7-0.3,2.5c0,0,0,0,0,0.1
				c-0.3,1.5-0.9,2.5-1.8,3c-0.9,0.7-2.4,1-4.3,1c-2.2,0-3.1-0.4-3.4-0.6c-0.6-0.4-1-1.3-1.2-2.6c-0.1-0.5-0.1-1-0.1-1.4
				c0-2.1,1-4.5,2.9-7c0.7-1,1.6-1.5,2.9-1.7c1.1-0.2,2.1,0.1,3.1,0.8c0.9,0.6,1.5,1.7,1.9,3.4C296.5,31.5,296.6,32.3,296.6,33.2z"
				/>
			<path id="XMLID_709_" class="st1" d="M290.1,52.4c-1.6,0-3.2-0.2-4.8-0.6c-5-1.3-8.6-4.3-10.8-8.9c-1-2.4-1.5-4.8-1.6-7.3
				c0-2.3,0.4-4.5,1.2-6.8c1.6-4.8,4.7-8.7,9.1-11.7c1.8-1.4,3.5-2.2,4.9-2.6c1.3-0.3,3-0.2,5.3,0c5.3,0.7,9.4,3.1,12.3,7.4
				c0,0,0,0,0,0c0,0,0,0,0,0c2,3,3.1,6.7,3.1,10.9c0,0.6,0,1.3-0.1,2.1c-0.4,5-2,9.1-4.9,12.1c-2.2,2.3-5.1,3.9-8.5,4.8
				C293.6,52.2,291.8,52.4,290.1,52.4z M290.4,18.4c-0.5,0-1,0-1.3,0.1c-0.9,0.2-2,0.8-3.4,1.9c0,0-0.1,0.1-0.1,0.1
				c-3.7,2.4-6.3,5.7-7.6,9.6c-0.6,1.9-1,3.7-1,5.5c0.1,1.9,0.5,3.9,1.3,5.8c1.6,3.4,4.3,5.6,8.1,6.7c2.5,0.7,5.3,0.6,8,0
				c2.7-0.7,4.9-1.9,6.6-3.7c2.2-2.3,3.5-5.6,3.8-9.7c0.1-0.7,0.1-1.2,0.1-1.7c0-3.4-0.8-6.3-2.4-8.6c0,0,0,0,0,0h0
				c-2.2-3.3-5.4-5.2-9.5-5.7C292,18.4,291.1,18.4,290.4,18.4z M290.1,41.7c-2.6,0-3.9-0.5-4.5-1c-1-0.8-1.7-2.1-2-3.8
				c0,0,0-0.1,0-0.1c-0.1-0.5-0.1-1.1-0.1-1.7c0-2.6,1.1-5.3,3.3-8.2c1-1.4,2.4-2.2,4.2-2.5c1.5-0.3,3,0.1,4.5,1.2
				c1.3,0.9,2.2,2.4,2.7,4.5c0.3,1,0.4,2,0.4,3.1c0,1-0.1,2-0.4,3c-0.5,2-1.3,3.4-2.7,4.3C294.3,41.3,292.5,41.7,290.1,41.7z
				 M288,37.5c0.2,0,0.8,0.2,2.2,0.2c2,0,2.9-0.4,3.2-0.6c0.2-0.1,0.7-0.4,1-1.9c0,0,0-0.1,0-0.1c0.2-0.7,0.3-1.3,0.3-2
				c0-0.7-0.1-1.4-0.3-2.1c-0.4-1.5-0.9-2-1.1-2.2c-0.8-0.6-1.2-0.6-1.6-0.5c-1,0.1-1.4,0.5-1.7,0.9c-1.7,2.2-2.5,4.2-2.5,5.8
				c0,0.4,0,0.8,0.1,1.2C287.7,37,287.9,37.4,288,37.5z"/>
		</g>
	</g>
</g>
</svg>
