<?xml version="1.0" encoding="utf-8"?>
<!-- Generator: Adobe Illustrator 19.0.1, SVG Export Plug-In . SVG Version: 6.00 Build 0)  -->
<svg version="1.1" id="Layer_1" xmlns="http://www.w3.org/2000/svg" xmlns:xlink="http://www.w3.org/1999/xlink" x="0px" y="0px"
	 viewBox="-1191 1593 16 16" style="enable-background:new -1191 1593 16 16;" xml:space="preserve">
<style type="text/css">
	.st0{fill:#FFFFFF;}
</style>
<path class="st0" d="M-1177,1601c-0.6,0-0.9,0.4-1,0.9c-0.4,1.6-1.9,4.1-5,4.1c-0.8,0-1.5-0.2-2.1-0.5l0.5-0.5
	c0.4-0.3,0.6-0.6,0.6-1c0-0.5-0.4-1-1-1h-3c-0.6,0-1,0.5-1,1v3c0,0.5,0.4,1,1,1c0.5,0,0.7-0.3,1-0.6l0.4-0.4c1,0.6,2.3,1,3.6,1
	c5,0,7-4.8,7-5.9C-1176,1601.3-1176.5,1601-1177,1601z M-1188,1600.1c0.4-1.6,1.9-4.1,5-4.1c0.8,0,1.5,0.2,2.1,0.5l-0.5,0.5
	c-0.4,0.3-0.6,0.6-0.6,1c0,0.5,0.4,1,1,1h3c0.6,0,1-0.5,1-1v-3c0-0.5-0.4-1-1-1c-0.5,0-0.7,0.3-1,0.6l-0.4,0.4c-1-0.6-2.3-1-3.6-1
	c-5,0-7,4.8-7,5.9c0,0.7,0.5,1.1,1,1.1C-1188.4,1601-1188.1,1600.6-1188,1600.1z"/>
</svg>
